<?xml version="1.0" encoding="utf-8"?>
<!-- Generator: Adobe Illustrator 25.2.0, SVG Export Plug-In . SVG Version: 6.00 Build 0)  -->
<svg version="1.1" id="Layer_1" xmlns="http://www.w3.org/2000/svg" xmlns:xlink="http://www.w3.org/1999/xlink" x="0px" y="0px"
	 viewBox="0 0 4422.2 1245.2" style="enable-background:new 0 0 4422.2 1245.2;" xml:space="preserve">
<style type="text/css">
	.st0{fill:#F16667;}
	.st1{fill:#FFFFFF;stroke:#000000;stroke-width:0.75;stroke-miterlimit:10;}
</style>
<desc>Created with Snap</desc>
<g transform="matrix(26.2692,0,0,26.2692,-2781.269,-1712.0181)">
	<g>
		<path class="st0" d="M144.7,97.6c-2.9,2.5-5.2,8-5.2,8s-3.6-6-6.8-8.1c-5-3.2-7.2-3.3-7.2-3.3v2.5c0,0,4.1,0.6,6.2,2.4
			c4.3,3.8,7.8,9.8,7.8,9.8s3.1-6.9,6.1-9.3c4.2-3.3,7.9-2.9,7.9-2.9v-2.5C153.5,94.3,148.3,94.6,144.7,97.6z"/>
		<path class="st0" d="M125.5,104.8c-3.4-1.9-9.4-2.3-9.4-2.3s4.6-5.3,5.6-9c1.5-5.7,0.8-7.8,0.8-7.8l-2.4,0.8c0,0,0.7,4.1-0.3,6.6
			c-2.2,5.2-6.9,10.5-6.9,10.5s7.7,0.7,10.9,2.7c4.5,2.9,5.4,6.3,5.4,6.3l2.4-0.8C131.6,111.9,129.6,107.1,125.5,104.8z"/>
		<path class="st0" d="M121.9,81.9c6-0.5,7.7-1.8,7.7-1.8l-1.6-2c0,0-3.6,2-6.4,1.8c-5.8-0.3-12.3-3-12.3-3s1.9,7.4,1,11.1
			c-1.3,5.2-4.4,7.1-4.4,7.1l1.6,2c0,0,4-3.4,4.8-8c0.7-3.8-0.9-9.5-0.9-9.5S118.1,82.3,121.9,81.9z"/>
		<path class="st0" d="M123,71.9c3.9-0.6,8.8-3.9,8.8-3.9s-0.3,7,1.3,10.5c2.4,5.4,4.2,6.6,4.2,6.6l1.4-2.1c0,0-3.1-2.7-3.9-5.4
			c-1.6-5.4-1.2-12.4-1.2-12.4s-6.5,4.1-10.3,4.5c-5.4,0.5-8.2-1.7-8.2-1.7l-1.4,2.2C113.8,70,118.4,72.6,123,71.9z"/>
		<path class="st0" d="M137.6,94.5c0,0,1.6-3.8,3.9-5.3c4.8-3.2,11.6-5.1,11.6-5.1s-6.1-4.7-7.7-8.1c-2.2-4.8-1-8.2-1-8.2l-2.5-0.6
			c0,0-1,5.1,1.2,9.2c1.8,3.4,6.6,7,6.6,7s-6.8,2-9.6,4.6c-4.4,4-5,6.1-5,6.1L137.6,94.5z"/>
	</g>
	<desc>Created with Snap</desc>
</g>
<g>
	<path class="st1" d="M1659.8,863.5c-34.4,0-67.2-5.5-98.3-16.5c-31.2-11-58.3-26.4-81.4-46.2c-23.1-19.8-40-42.6-50.8-68.5
		c-5.4-11.5-5.2-22.3,0.4-32.2s15.2-16.2,28.6-19c9.7-2.2,19.2-0.7,28.6,4.5s16.5,13.1,21.4,23.5c6.4,13.8,17,26.4,31.8,37.9
		s32.6,20.9,53.6,28c21,7.2,43,10.7,66.1,10.7c25.8,0,49.6-4.1,71.3-12.4c21.8-8.2,39.4-20.2,52.8-35.9
		c13.4-15.7,20.1-35.1,20.1-58.1c0-29.1-11.2-55.3-33.4-78.4c-22.3-23.1-59-37.4-110-42.9c-66.6-6.6-119-26.7-157.1-60.2
		c-38.2-33.5-57.2-75.1-57.2-124.5c0-36.3,9.9-67.1,29.8-92.4c19.9-25.3,46.9-44.5,81-57.7s72.1-19.8,114-19.8
		c32.8,0,61.4,4.7,85.8,14c24.4,9.4,45.8,22.3,64.1,38.8s34.1,36,47.5,58.6c7.5,12.1,10.6,23.5,9.3,34.2s-6.6,19.1-15.7,25.2
		c-10.2,6.6-21.2,8-33,4.1c-11.8-3.8-20.7-11-26.6-21.4c-8.6-15.9-19.1-29.4-31.4-40.4c-12.4-11-26.9-19.7-43.5-26
		c-16.7-6.3-36.3-9.5-58.8-9.5c-39.8-0.5-73.1,7-99.9,22.7c-26.9,15.7-40.3,39.7-40.3,72.2c0,16.5,4.2,32.3,12.5,47.4
		c8.3,15.1,23.6,28.2,45.9,39.2c22.3,11,54.4,18.7,96.3,23.1c63.9,6.6,113.8,26.5,149.5,59.8s53.6,77.1,53.6,131.6
		c0,31.3-6.3,58.6-18.9,81.7c-12.6,23.1-29.6,42.5-50.8,58.1c-21.2,15.7-45.4,27.4-72.5,35.1
		C1716.9,859.6,1688.8,863.5,1659.8,863.5z"/>
	<path class="st1" d="M2045.8,855.2c-11.8,0-21.4-3.7-28.6-11.1s-10.9-17.2-10.9-29.3V251.5c0-12.1,3.6-21.9,10.9-29.3
		c7.3-7.4,16.8-11.1,28.6-11.1c11.8,0,21.4,3.7,28.6,11.1c7.3,7.4,10.9,17.2,10.9,29.3v563.3c0,12.1-3.6,21.9-10.9,29.3
		S2057.6,855.2,2045.8,855.2z M2083.7,690.3l-50-56.1l247.4-226c8.1-7.7,17-11.3,27-10.7c9.9,0.6,18.4,4.9,25.4,13.2
		c7.5,8.2,11,17.3,10.5,27.2s-4.8,18.7-12.9,26.4L2083.7,690.3z M2333.5,851.1c-8.6,7.1-18.1,10.3-28.6,9.5s-19.2-5.6-26.2-14.4
		l-163.6-207l56.4-54.4l167.6,211.1c7,8.8,10.1,18.3,9.3,28.5C2347.6,834.5,2342.6,843.4,2333.5,851.1z"/>
	<path class="st1" d="M2514,404.1c-11.8,0-21.6,3.9-29.4,11.5c-7.8,7.7-11.7,17.9-11.7,30.5v367c0,12.1,3.9,22.1,11.7,30.1
		s17.6,12,29.4,12c12.4,0,22.3-4,29.8-12s11.3-18,11.3-30.1v-367c0-12.6-3.8-22.8-11.3-30.5S2526.4,404.1,2514,404.1z"/>
	<path class="st1" d="M2813,855.2c-23.6,0-44.6-6.6-62.9-19.8c-18.3-13.2-32.5-31.2-42.7-54s-15.3-49.1-15.3-78.8V252.3
		c0-12.1,3.8-22,11.3-29.7s17.2-11.5,29-11.5s21.5,3.9,29,11.5c7.5,7.7,11.3,17.6,11.3,29.7v450.3c0,20.3,3.8,37.1,11.3,50.3
		c7.5,13.2,17.2,19.8,29,19.8h20.1c10.7,0,19.5,3.9,26.2,11.5c6.7,7.7,10.1,17.6,10.1,29.7s-5.1,22-15.3,29.7s-23.4,11.5-39.5,11.5
		L2813,855.2L2813,855.2z"/>
	<path class="st1" d="M3054.7,855.2c-23.6,0-44.6-6.6-62.9-19.8c-18.3-13.2-32.5-31.2-42.7-54s-15.3-49.1-15.3-78.8V252.3
		c0-12.1,3.8-22,11.3-29.7s17.2-11.5,29-11.5s21.5,3.9,29,11.5c7.5,7.7,11.3,17.6,11.3,29.7v450.3c0,20.3,3.8,37.1,11.3,50.3
		c7.5,13.2,17.2,19.8,29,19.8h20.1c10.7,0,19.5,3.9,26.2,11.5c6.7,7.7,10.1,17.6,10.1,29.7s-5.1,22-15.3,29.7s-23.4,11.5-39.5,11.5
		L3054.7,855.2L3054.7,855.2z"/>
	<path class="st1" d="M3374.7,858.5c-44.6,0-84.2-9.8-118.9-29.3s-61.8-46.5-81.4-80.8C3154.8,714,3145,674.6,3145,630
		c0-45.1,9.3-84.8,27.8-119.2c18.5-34.4,44.2-61.3,77-80.8s70.4-29.3,112.8-29.3c41.9,0,77.9,9.5,108,28.5s53.1,45.1,68.9,78.4
		s23.8,71.6,23.8,115.1c0,10.5-3.5,19.1-10.5,26s-15.9,10.3-26.6,10.3h-324.8v-66h322.4l-33,23.1c-0.5-27.5-5.9-52.1-16.1-73.8
		c-10.2-21.7-24.7-38.9-43.5-51.5s-41.6-19-68.5-19c-30.6,0-56.8,6.9-78.6,20.6c-21.8,13.8-38.3,32.6-49.6,56.5s-16.9,51-16.9,81.2
		s6.7,57.2,20.1,80.8c13.4,23.6,32,42.3,55.6,56.1c23.6,13.8,50.8,20.6,81.4,20.6c16.6,0,33.7-3.2,51.2-9.5s31.6-13.6,42.3-21.9
		c8.1-6,16.8-9.2,26.2-9.5s17.6,2.6,24.6,8.7c9.1,8.2,14,17.3,14.5,27.2c0.5,9.9-3.8,18.4-12.9,25.6c-18.3,14.8-41,26.9-68.1,36.3
		C3425.3,853.9,3399.4,858.5,3374.7,858.5z"/>
	<path class="st1" d="M3708.3,855.2c-12.9,0-22.8-3.4-29.8-10.3S3668,827.7,3668,814V445.3c0-13.2,3.5-23.4,10.5-30.5
		s16.9-10.7,29.8-10.7c13.4,0,23.5,3.4,30.2,10.3c6.7,6.9,10.1,17.2,10.1,30.9V814c0,13.2-3.4,23.4-10.1,30.5
		C3731.8,851.7,3721.7,855.2,3708.3,855.2z M3707.5,573.1c0-33,7.9-62.5,23.8-88.7c15.8-26.1,37.2-46.9,64.1-62.3
		c26.9-15.4,56.4-23.1,88.6-23.1s56.3,5.4,72.1,16.1c15.8,10.7,21.9,23.5,18.1,38.4c-1.6,7.7-4.7,13.6-9.3,17.7
		c-4.6,4.1-9.8,6.7-15.7,7.8c-5.9,1.1-12.4,0.8-19.3-0.8c-34.4-7.1-65.3-7.7-92.7-1.6c-27.4,6.1-49,17.3-64.9,33.8
		s-23.8,37.4-23.8,62.7L3707.5,573.1L3707.5,573.1z"/>
	<path class="st1" d="M4233.8,837.1c-10.2,4.4-19.7,4.8-28.6,1.2c-8.9-3.6-16-10.6-21.4-21l-184.5-358.8c-5.4-10.4-6-20.5-2-30.1
		s11.1-16.6,21.4-21c10.2-4.4,19.9-4.8,29-1.2s16.1,10.6,21,21L4245.2,786c5.4,10.5,7.4,20.5,6,30.1
		C4249.7,825.7,4243.9,832.7,4233.8,837.1z M4138.7,1053.2c-5.4,0-11.8-1.6-19.3-4.9c-23.6-11-30.1-28.3-19.3-52L4345.9,428
		c10.7-23.1,27.7-29.7,50.8-19.8c24.2,10.5,30.9,27.8,20.1,52l-246.7,567.4C4163.6,1044.6,4153.2,1053.2,4138.7,1053.2z"/>
</g>
</svg>
