<?xml version="1.0" encoding="utf-8"?>
<!-- Generator: Adobe Illustrator 25.2.0, SVG Export Plug-In . SVG Version: 6.00 Build 0)  -->
<svg version="1.1" id="Layer_1" xmlns="http://www.w3.org/2000/svg" xmlns:xlink="http://www.w3.org/1999/xlink" x="0px" y="0px"
	 viewBox="0 0 2364.2 2361.6" style="enable-background:new 0 0 2364.2 2361.6;" xml:space="preserve">
<style type="text/css">
	.st0{fill:#F16667;}
</style>
<desc>Created with Snap</desc>
<g transform="matrix(26.2692,0,0,26.2692,-2781.269,-1712.0181)">
	<g>
		<path class="st0" d="M179.3,126.7c-5.5,4.8-9.9,15.2-9.9,15.2s-6.9-11.4-12.9-15.3c-9.5-6.1-13.6-6.2-13.6-6.2v4.8
			c0,0,7.8,1.2,11.7,4.6c8.2,7.1,14.8,18.5,14.8,18.5s5.9-13.1,11.6-17.6c8-6.2,14.9-5.5,14.9-5.5v-4.8
			C195.9,120.3,186,120.9,179.3,126.7z"/>
		<path class="st0" d="M142.9,140.2c-6.4-3.6-17.8-4.3-17.8-4.3s8.7-10.1,10.5-17c2.8-10.8,1.5-14.7,1.5-14.7l-4.6,1.6
			c0,0,1.3,7.7-0.6,12.4c-4.1,9.9-13,19.8-13,19.8s14.6,1.3,20.7,5.1c8.6,5.4,10.2,12,10.2,12l4.6-1.6
			C154.4,153.6,150.6,144.6,142.9,140.2z"/>
		<path class="st0" d="M136.2,97c11.3-0.9,14.6-3.4,14.6-3.4l-3-3.8c0,0-6.9,3.7-12.1,3.4c-10.9-0.6-23.3-5.6-23.3-5.6
			s3.5,14,1.8,20.9c-2.4,9.9-8.3,13.5-8.3,13.5l3,3.8c0,0,7.5-6.5,9.1-15.1c1.3-7.1-1.7-18-1.7-18S128.9,97.6,136.2,97z"/>
		<path class="st0" d="M138.3,78c7.3-1.1,16.7-7.4,16.7-7.4s-0.6,13.2,2.4,19.8c4.6,10.2,8,12.5,8,12.5l2.7-4c0,0-5.9-5.2-7.3-10.2
			c-3-10.3-2.2-23.5-2.2-23.5s-12.3,7.8-19.5,8.5c-10.2,1-15.6-3.3-15.6-3.3l-2.7,4.1C120.8,74.4,129.5,79.3,138.3,78z"/>
		<path class="st0" d="M165.9,120.7c0,0,3.1-7.2,7.4-10.1c9-6.1,21.9-9.7,21.9-9.7s-11.5-8.9-14.5-15.4c-4.2-9.1-1.9-15.6-1.9-15.6
			l-4.8-1.2c0,0-1.9,9.6,2.2,17.4c3.4,6.4,12.5,13.2,12.5,13.2s-12.8,3.8-18.2,8.7c-8.3,7.6-9.4,11.5-9.4,11.5L165.9,120.7z"/>
	</g>
	<desc>Created with Snap</desc>
</g>
</svg>
